<?xml version="1.0" encoding="utf-8"?>
<!DOCTYPE svg PUBLIC "-//W3C//DTD SVG 1.1//EN" "http://www.w3.org/Graphics/SVG/1.1/DTD/svg11.dtd">
<svg version="1.1" id="Layer_1" xmlns="http://www.w3.org/2000/svg" xmlns:xlink="http://www.w3.org/1999/xlink" x="0px" y="0px"
	 width="830px" height="231.6px" viewBox="0 0 830 231.6" style="enable-background:new 0 0 830 231.6;" xml:space="preserve">
<g>
	<path style="fill:#FFFFFF;" d="M468,106L468,106l0-53h0c0-29.3-23.7-53-53-53v53C415,82.2,438.7,106,468,106z"/>
	<path style="fill:#FFFFFF;" d="M469,0v53h0c0,29.3,23.7,53,53,53V53h0C522,23.7,498.2,0,469,0z"/>
	<path style="fill:#FFFFFF;" d="M414,106C414,106,414,106,414,106l0-53h0c0-29.3-23.7-53-53-53v53C361,82.2,384.7,106,414,106z"/>
	<path style="fill:#FFFFFF;" d="M240,53c0,29.3,23.7,53,53,53V53V0C263.7,0,240,23.7,240,53z"/>
	<path style="fill:#FFFFFF;" d="M347,53L347,53c0-29.3-23.7-53-53-53h0v53h0v53c0,0,0,0,0,0c9.7,0,18.7-2.6,26.5-7.1
		c7.8,4.5,16.8,7.1,26.5,7.1L347,53L347,53L347,53z"/>
	<path style="fill:#FFFFFF;" d="M173,106V53V0c-29.3,0-53,23.7-53,53S143.7,106,173,106z"/>
	<path style="fill:#FFFFFF;" d="M174,0C174,0,174,0,174,0l0,53v53c0,0,0,0,0,0c29.3,0,53-23.7,53-53C227,23.7,203.2,0,174,0z"/>
	<g>
		<path style="fill:#FFFFFF;" d="M53,0C23.7,0,0,23.7,0,53h53V0z"/>
		<path style="fill:#FFFFFF;" d="M0,53v53c29.3,0,53-23.7,53-53H0z"/>
	</g>
	<path style="fill:#FFFFFF;" d="M54,53c0,29.3,23.7,53,53,53V53h0c0-29.3-23.7-53-53-53h0L54,53L54,53C54,53,54,53,54,53z"/>
	<path style="fill:#FFFFFF;" d="M776,178.6L776,178.6l0-53h-53C723,154.9,746.7,178.6,776,178.6z"/>
	<path style="fill:#FFFFFF;" d="M777,231.6C777,231.6,777,231.6,777,231.6c29.3,0,53-23.7,53-53h-53V231.6z"/>
	<path style="fill:#FFFFFF;" d="M777,125.7v53c29.3,0,53-23.7,53-53v0H777z"/>
	<path style="fill:#FFFFFF;" d="M603,178.6c29.3,0,53-23.7,53-53v0h-53V178.6z"/>
	<path style="fill:#FFFFFF;" d="M603,178.6v53h53c0,0,0,0,0,0C656,202.4,632.3,178.6,603,178.6z"/>
	<path style="fill:#FFFFFF;" d="M657,178.6c29.3,0,53-23.7,53-53c0,0,0,0,0,0h-53V178.6z"/>
	<path style="fill:#FFFFFF;" d="M657,178.6v53h53v0C710,202.4,686.2,178.6,657,178.6z"/>
	<path style="fill:#FFFFFF;" d="M534,178.6L534,178.6l0,53c0,0,0,0,0,0c29.3,0,53-23.7,53-53v-53C557.7,125.7,534,149.4,534,178.6z"
		/>
	<path style="fill:#FFFFFF;" d="M413,125.7v53c0,29.3,23.7,53,53,53c0,0,0,0,0,0v-53h0C466,149.4,442.3,125.7,413,125.7z"/>
	<path style="fill:#FFFFFF;" d="M467,125.7v53h0c0,29.3,23.7,53,53,53v-53h0C520,149.4,496.2,125.7,467,125.7z"/>
	<path style="fill:#FFFFFF;" d="M359,125.7v53c0,29.3,23.7,53,53,53c0,0,0,0,0,0v-53h0C412,149.4,388.3,125.7,359,125.7z"/>
	<path style="fill:#FFFFFF;" d="M240,178.6c0,29.3,23.7,53,53,53v-53v-53C263.7,125.7,240,149.4,240,178.6z"/>
	<path style="fill:#FFFFFF;" d="M294,125.7L294,125.7l0,53h0v53c0,0,0,0,0,0c29.3,0,53-23.7,53-53h0
		C347,149.4,323.2,125.7,294,125.7z"/>
	<path style="fill:#FFFFFF;" d="M174,125.7C174,125.7,174,125.7,174,125.7l0,53h0v0c0,29.3,23.7,53,53,53v-53h0
		C227,149.4,203.2,125.7,174,125.7z"/>
	<path style="fill:#FFFFFF;" d="M120,125.7L120,125.7l0,53h0v0c0,29.3,23.7,53,53,53v-53h0C173,149.4,149.3,125.7,120,125.7z"/>
	<path style="fill:#FFFFFF;" d="M0,178.6L0,178.6c0,29.3,23.7,53,53,53v-53v-53C23.7,125.7,0,149.4,0,178.6z"/>
	<path style="fill:#FFFFFF;" d="M54,231.6c29.3,0,53-23.7,53-53H54V231.6z"/>
	<path style="fill:#FFFFFF;" d="M54,178.6C54,178.6,54,178.6,54,178.6c29.3,0,53-23.7,53-53H54V178.6z"/>
</g>
</svg>
