<?xml version="1.0" encoding="utf-8"?>
<!DOCTYPE svg PUBLIC "-//W3C//DTD SVG 1.1//EN" "http://www.w3.org/Graphics/SVG/1.1/DTD/svg11.dtd">
<svg version="1.1" id="Layer_1" xmlns="http://www.w3.org/2000/svg" xmlns:xlink="http://www.w3.org/1999/xlink" x="0px" y="0px"
	 width="383.9px" height="383.9px" viewBox="0 0 383.9 383.9" style="enable-background:new 0 0 383.9 383.9;" xml:space="preserve">
<g>
	<g style="opacity:0.6;">
		<path style="fill:#FFFFFF;" d="M32,0L32,0l0,32h32C64,14.3,49.7,0,32,0z"/>
		<path style="fill:#FFFFFF;" d="M32,191.9L32,191.9c17.7,0,32-14.3,32-32H32V191.9z"/>
		<path style="fill:#FFFFFF;" d="M32,255.9L32,255.9c17.7,0,32-14.3,32-32H32V255.9z"/>
		<path style="fill:#FFFFFF;" d="M0,383.9c17.7,0,32-14.3,32-32H0V383.9z"/>
		<path style="fill:#FFFFFF;" d="M96,128L96,128l0,32h32C128,142.3,113.6,128,96,128z"/>
		<path style="fill:#FFFFFF;" d="M96,319.9L96,319.9l0,32h32C128,334.2,113.6,319.9,96,319.9z"/>
		<path style="fill:#FFFFFF;" d="M159.9,128L159.9,128c17.7,0,32-14.3,32-32h-32V128z"/>
		<path style="fill:#FFFFFF;" d="M159.9,191.9c0-17.7-14.3-32-32-32v32H159.9z"/>
		<path style="fill:#FFFFFF;" d="M159.9,383.9L159.9,383.9c17.7,0,32-14.3,32-32h-32V383.9z"/>
		<path style="fill:#FFFFFF;" d="M223.9,64L223.9,64c17.7,0,32-14.3,32-32h-32V64z"/>
		<path style="fill:#FFFFFF;" d="M223.9,64L223.9,64l0,32h32C255.9,78.3,241.6,64,223.9,64z"/>
		<path style="fill:#FFFFFF;" d="M191.9,159.9c0,17.7,14.3,32,32,32v-32H191.9z"/>
		<path style="fill:#FFFFFF;" d="M223.9,255.9L223.9,255.9l0,32h32C255.9,270.2,241.6,255.9,223.9,255.9z"/>
		<path style="fill:#FFFFFF;" d="M223.9,319.9L223.9,319.9l0,32h32C255.9,334.2,241.6,319.9,223.9,319.9z"/>
		<path style="fill:#FFFFFF;" d="M287.9,191.9L287.9,191.9c17.7,0,32-14.3,32-32h-32V191.9z"/>
		<path style="fill:#FFFFFF;" d="M319.9,255.9L319.9,255.9l-32,0v32C305.6,287.9,319.9,273.6,319.9,255.9z"/>
		<path style="fill:#FFFFFF;" d="M351.9,64L351.9,64l0,32h32C383.9,78.3,369.5,64,351.9,64z"/>
		<path style="fill:#FFFFFF;" d="M351.9,128L351.9,128l0,32h32C383.9,142.3,369.5,128,351.9,128z"/>
	</g>
	<g style="opacity:0.6;">
		<path style="fill:#FFFFFF;" d="M32,0C14.3,0,0,14.3,0,32h32V0z"/>
		<path style="fill:#FFFFFF;" d="M32,255.9c-17.7,0-32,14.3-32,32h32V255.9z"/>
		<path style="fill:#FFFFFF;" d="M32,383.9L32,383.9c17.7,0,32-14.3,32-32H32V383.9z"/>
		<path style="fill:#FFFFFF;" d="M96,0C78.3,0,64,14.3,64,32h32V0z"/>
		<path style="fill:#FFFFFF;" d="M64,96c0,17.7,14.3,32,32,32V96H64z"/>
		<path style="fill:#FFFFFF;" d="M96,191.9L96,191.9c17.7,0,32-14.3,32-32H96V191.9z"/>
		<path style="fill:#FFFFFF;" d="M96,191.9c-17.7,0-32,14.3-32,32h32V191.9z"/>
		<path style="fill:#FFFFFF;" d="M96,383.9L96,383.9c17.7,0,32-14.3,32-32H96V383.9z"/>
		<path style="fill:#FFFFFF;" d="M159.9,0L159.9,0l0,32h32C191.9,14.3,177.6,0,159.9,0z"/>
		<path style="fill:#FFFFFF;" d="M159.9,255.9c-17.7,0-32,14.3-32,32h32V255.9z"/>
		<path style="fill:#FFFFFF;" d="M191.9,96c0,17.7,14.3,32,32,32V96H191.9z"/>
		<path style="fill:#FFFFFF;" d="M223.9,128L223.9,128l0,32h32C255.9,142.3,241.6,128,223.9,128z"/>
		<path style="fill:#FFFFFF;" d="M223.9,255.9L223.9,255.9c17.7,0,32-14.3,32-32h-32V255.9z"/>
		<path style="fill:#FFFFFF;" d="M255.9,32c0,17.7,14.3,32,32,32V32H255.9z"/>
		<path style="fill:#FFFFFF;" d="M287.9,128L287.9,128c17.7,0,32-14.3,32-32h-32V128z"/>
		<path style="fill:#FFFFFF;" d="M287.9,191.9L287.9,191.9l0,32h32C319.9,206.3,305.6,191.9,287.9,191.9z"/>
		<path style="fill:#FFFFFF;" d="M287.9,351.9c-17.7,0-32,14.3-32,32h32V351.9z"/>
		<path style="fill:#FFFFFF;" d="M287.9,351.9L287.9,351.9l0,32h32C319.9,366.2,305.6,351.9,287.9,351.9z"/>
		<path style="fill:#FFFFFF;" d="M351.9,255.9L351.9,255.9c17.7,0,32-14.3,32-32h-32V255.9z"/>
		<path style="fill:#FFFFFF;" d="M319.9,351.9c0,17.7,14.3,32,32,32v-32H319.9z"/>
	</g>
	<path style="fill:#FFFFFF;" d="M32,32C14.3,32,0,46.3,0,64h32V32z"/>
	<path style="fill:#FFFFFF;" d="M32,64L32,64l0,32h32C64,78.3,49.7,64,32,64z"/>
	<path style="fill:#FFFFFF;" d="M32,64C14.3,64,0,78.3,0,96h32V64z"/>
	<path style="fill:#FFFFFF;" d="M64,128L64,128c0-17.7-14.3-32-32-32v32H64z"/>
	<path style="fill:#FFFFFF;" d="M32,128L32,128l0,32h32C64,142.3,49.7,128,32,128z"/>
	<path style="fill:#FFFFFF;" d="M0,128c0,17.7,14.3,32,32,32v-32L0,128z"/>
	<path style="fill:#FFFFFF;" d="M32,223.9L32,223.9l32,0v-32C46.3,191.9,32,206.3,32,223.9z"/>
	<path style="fill:#FFFFFF;" d="M32,191.9c-17.7,0-32,14.3-32,32h32V191.9z"/>
	<path style="fill:#FFFFFF;" d="M32,255.9L32,255.9l0,32h32C64,270.2,49.7,255.9,32,255.9z"/>
	<path style="fill:#FFFFFF;" d="M32,319.9c0-17.7-14.3-32-32-32l0,32H32z"/>
	<path style="fill:#FFFFFF;" d="M32,319.9L32,319.9l0,32h32C64,334.2,49.7,319.9,32,319.9z"/>
	<path style="fill:#FFFFFF;" d="M32,319.9c-17.7,0-32,14.3-32,32h32V319.9z"/>
	<path style="fill:#FFFFFF;" d="M96,0L96,0l0,32h32C128,14.3,113.6,0,96,0z"/>
	<path style="fill:#FFFFFF;" d="M64,32c0,17.7,14.3,32,32,32V32H64z"/>
	<path style="fill:#FFFFFF;" d="M96,32L96,32c0,17.7,14.3,32,32,32V32L96,32z"/>
	<path style="fill:#FFFFFF;" d="M128,64L128,64l-32,0v32C113.6,96,128,81.6,128,64z"/>
	<path style="fill:#FFFFFF;" d="M96,64c-17.7,0-32,14.3-32,32h32V64z"/>
	<path style="fill:#FFFFFF;" d="M96,128L96,128c17.7,0,32-14.3,32-32H96V128z"/>
	<path style="fill:#FFFFFF;" d="M96,128c-17.7,0-32,14.3-32,32h32V128z"/>
	<path style="fill:#FFFFFF;" d="M96,191.9L96,191.9l0,32h32C128,206.3,113.6,191.9,96,191.9z"/>
	<path style="fill:#FFFFFF;" d="M96,223.9L96,223.9c0,17.7,14.3,32,32,32v-32H96z"/>
	<path style="fill:#FFFFFF;" d="M96,255.9L96,255.9l0,32h32C128,270.2,113.6,255.9,96,255.9z"/>
	<path style="fill:#FFFFFF;" d="M96,255.9c-17.7,0-32,14.3-32,32h32V255.9z"/>
	<path style="fill:#FFFFFF;" d="M64,287.9c0,17.7,14.3,32,32,32v-32H64z"/>
	<path style="fill:#FFFFFF;" d="M128,319.9L128,319.9c0-17.7-14.3-32-32-32v32H128z"/>
	<path style="fill:#FFFFFF;" d="M96,351.9c0-17.7-14.3-32-32-32v32H96z"/>
	<path style="fill:#FFFFFF;" d="M96,351.9c-17.7,0-32,14.3-32,32h32V351.9z"/>
	<path style="fill:#FFFFFF;" d="M159.9,0c-17.7,0-32,14.3-32,32h32V0z"/>
	<path style="fill:#FFFFFF;" d="M128,32c0,17.7,14.3,32,32,32V32H128z"/>
	<path style="fill:#FFFFFF;" d="M159.9,64L159.9,64l0,32h32C191.9,78.3,177.6,64,159.9,64z"/>
	<path style="fill:#FFFFFF;" d="M159.9,128L159.9,128l0,32h32C191.9,142.3,177.6,128,159.9,128z"/>
	<path style="fill:#FFFFFF;" d="M159.9,128c-17.7,0-32,14.3-32,32h32V128z"/>
	<path style="fill:#FFFFFF;" d="M159.9,191.9L159.9,191.9c17.7,0,32-14.3,32-32h-32V191.9z"/>
	<path style="fill:#FFFFFF;" d="M159.9,191.9L159.9,191.9l0,32h32C191.9,206.3,177.6,191.9,159.9,191.9z"/>
	<path style="fill:#FFFFFF;" d="M128,223.9c0,17.7,14.3,32,32,32v-32H128z"/>
	<path style="fill:#FFFFFF;" d="M191.9,255.9L191.9,255.9c0-17.7-14.3-32-32-32v32H191.9z"/>
	<path style="fill:#FFFFFF;" d="M159.9,255.9L159.9,255.9l0,32h32C191.9,270.2,177.6,255.9,159.9,255.9z"/>
	<path style="fill:#FFFFFF;" d="M159.9,319.9c-17.7,0-32,14.3-32,32h32V319.9z"/>
	<path style="fill:#FFFFFF;" d="M128,351.9c0,17.7,14.3,32,32,32v-32H128z"/>
	<path style="fill:#FFFFFF;" d="M223.9,0L223.9,0l0,32h32C255.9,14.3,241.6,0,223.9,0z"/>
	<path style="fill:#FFFFFF;" d="M223.9,0c-17.7,0-32,14.3-32,32h32V0z"/>
	<path style="fill:#FFFFFF;" d="M223.9,32c-17.7,0-32,14.3-32,32h32V32z"/>
	<path style="fill:#FFFFFF;" d="M223.9,64c-17.7,0-32,14.3-32,32h32V64z"/>
	<path style="fill:#FFFFFF;" d="M223.9,191.9L223.9,191.9c17.7,0,32-14.3,32-32h-32V191.9z"/>
	<path style="fill:#FFFFFF;" d="M191.9,191.9c0,17.7,14.3,32,32,32v-32H191.9z"/>
	<path style="fill:#FFFFFF;" d="M191.9,223.9c0,17.7,14.3,32,32,32v-32H191.9z"/>
	<path style="fill:#FFFFFF;" d="M191.9,287.9c0,17.7,14.3,32,32,32v-32H191.9z"/>
	<path style="fill:#FFFFFF;" d="M191.9,351.9c0,17.7,14.3,32,32,32v-32H191.9z"/>
	<path style="fill:#FFFFFF;" d="M223.9,383.9L223.9,383.9c17.7,0,32-14.3,32-32h-32V383.9z"/>
	<path style="fill:#FFFFFF;" d="M287.9,0c-17.7,0-32,14.3-32,32h32V0z"/>
	<path style="fill:#FFFFFF;" d="M287.9,64L287.9,64c17.7,0,32-14.3,32-32h-32V64z"/>
	<path style="fill:#FFFFFF;" d="M287.9,96L287.9,96l32,0V64C302.2,64,287.9,78.3,287.9,96z"/>
	<path style="fill:#FFFFFF;" d="M287.9,96c0-17.7-14.3-32-32-32v32H287.9z"/>
	<path style="fill:#FFFFFF;" d="M255.9,96c0,17.7,14.3,32,32,32V96H255.9z"/>
	<path style="fill:#FFFFFF;" d="M287.9,128c-17.7,0-32,14.3-32,32h32V128z"/>
	<path style="fill:#FFFFFF;" d="M255.9,191.9c17.7,0,32-14.3,32-32h-32V191.9z"/>
	<path style="fill:#FFFFFF;" d="M287.9,223.9c0-17.7-14.3-32-32-32v32H287.9z"/>
	<path style="fill:#FFFFFF;" d="M255.9,223.9c0,17.7,14.3,32,32,32v-32H255.9z"/>
	<path style="fill:#FFFFFF;" d="M287.9,255.9L287.9,255.9c17.7,0,32-14.3,32-32h-32V255.9z"/>
	<path style="fill:#FFFFFF;" d="M287.9,255.9c-17.7,0-32,14.3-32,32h32V255.9z"/>
	<path style="fill:#FFFFFF;" d="M287.9,319.9L287.9,319.9c17.7,0,32-14.3,32-32h-32V319.9z"/>
	<path style="fill:#FFFFFF;" d="M287.9,351.9L287.9,351.9l32,0v-32C302.2,319.9,287.9,334.2,287.9,351.9z"/>
	<path style="fill:#FFFFFF;" d="M287.9,319.9c-17.7,0-32,14.3-32,32h32V319.9z"/>
	<path style="fill:#FFFFFF;" d="M351.9,0c-17.7,0-32,14.3-32,32h32V0z"/>
	<path style="fill:#FFFFFF;" d="M319.9,32c0,17.7,14.3,32,32,32V32H319.9z"/>
	<path style="fill:#FFFFFF;" d="M383.9,64L383.9,64c0-17.7-14.3-32-32-32v32H383.9z"/>
	<path style="fill:#FFFFFF;" d="M319.9,96c0,17.7,14.3,32,32,32V96H319.9z"/>
	<path style="fill:#FFFFFF;" d="M351.9,128L351.9,128c17.7,0,32-14.3,32-32h-32V128z"/>
	<path style="fill:#FFFFFF;" d="M351.9,128c-17.7,0-32,14.3-32,32h32V128z"/>
	<path style="fill:#FFFFFF;" d="M351.9,159.9c-17.7,0-32,14.3-32,32h32V159.9z"/>
	<path style="fill:#FFFFFF;" d="M383.9,191.9L383.9,191.9c0-17.7-14.3-32-32-32v32H383.9z"/>
	<path style="fill:#FFFFFF;" d="M351.9,191.9L351.9,191.9l0,32h32C383.9,206.3,369.5,191.9,351.9,191.9z"/>
	<path style="fill:#FFFFFF;" d="M351.9,191.9c-17.7,0-32,14.3-32,32h32V191.9z"/>
	<path style="fill:#FFFFFF;" d="M319.9,223.9c0,17.7,14.3,32,32,32v-32H319.9z"/>
	<path style="fill:#FFFFFF;" d="M351.9,255.9L351.9,255.9l0,32h32C383.9,270.2,369.5,255.9,351.9,255.9z"/>
	<path style="fill:#FFFFFF;" d="M319.9,255.9c0,17.7,14.3,32,32,32v-32H319.9z"/>
	<path style="fill:#FFFFFF;" d="M319.9,287.9c0,17.7,14.3,32,32,32v-32H319.9z"/>
	<path style="fill:#FFFFFF;" d="M351.9,319.9L351.9,319.9l0,32h32C383.9,334.2,369.5,319.9,351.9,319.9z"/>
	<path style="fill:#FFFFFF;" d="M351.9,319.9c-17.7,0-32,14.3-32,32h32V319.9z"/>
	<path style="fill:#FFFFFF;" d="M351.9,351.9L351.9,351.9c0,17.7,14.3,32,32,32v-32H351.9z"/>
	<g style="opacity:0.9;">
		<path style="fill:#FFFFFF;" d="M32,64L32,64c17.7,0,32-14.3,32-32H32V64z"/>
		<path style="fill:#FFFFFF;" d="M0,96c0,17.7,14.3,32,32,32V96H0z"/>
		<path style="fill:#FFFFFF;" d="M32,159.9c-17.7,0-32,14.3-32,32h32V159.9z"/>
		<path style="fill:#FFFFFF;" d="M0,223.9c0,17.7,14.3,32,32,32v-32H0z"/>
		<path style="fill:#FFFFFF;" d="M32,319.9L32,319.9c17.7,0,32-14.3,32-32H32V319.9z"/>
		<path style="fill:#FFFFFF;" d="M64,159.9c0,17.7,14.3,32,32,32v-32H64z"/>
		<path style="fill:#FFFFFF;" d="M64,255.9c17.7,0,32-14.3,32-32H64V255.9z"/>
		<path style="fill:#FFFFFF;" d="M159.9,64L159.9,64c17.7,0,32-14.3,32-32h-32V64z"/>
		<path style="fill:#FFFFFF;" d="M159.9,96c0-17.7-14.3-32-32-32v32H159.9z"/>
		<path style="fill:#FFFFFF;" d="M128,96c0,17.7,14.3,32,32,32V96H128z"/>
		<path style="fill:#FFFFFF;" d="M159.9,191.9c-17.7,0-32,14.3-32,32h32V191.9z"/>
		<path style="fill:#FFFFFF;" d="M128,287.9c0,17.7,14.3,32,32,32v-32H128z"/>
		<path style="fill:#FFFFFF;" d="M159.9,287.9L159.9,287.9c0,17.7,14.3,32,32,32v-32H159.9z"/>
		<path style="fill:#FFFFFF;" d="M159.9,351.9L159.9,351.9l32,0v-32C174.3,319.9,159.9,334.2,159.9,351.9z"/>
		<path style="fill:#FFFFFF;" d="M223.9,128c-17.7,0-32,14.3-32,32h32V128z"/>
		<path style="fill:#FFFFFF;" d="M223.9,191.9L223.9,191.9l0,32h32C255.9,206.3,241.6,191.9,223.9,191.9z"/>
		<path style="fill:#FFFFFF;" d="M223.9,255.9c-17.7,0-32,14.3-32,32h32V255.9z"/>
		<path style="fill:#FFFFFF;" d="M223.9,319.9L223.9,319.9c17.7,0,32-14.3,32-32h-32V319.9z"/>
		<path style="fill:#FFFFFF;" d="M287.9,128L287.9,128l0,32h32C319.9,142.3,305.6,128,287.9,128z"/>
		<path style="fill:#FFFFFF;" d="M287.9,319.9c0-17.7-14.3-32-32-32v32H287.9z"/>
		<path style="fill:#FFFFFF;" d="M383.9,0L383.9,0l-32,0v32C369.5,32,383.9,17.7,383.9,0z"/>
		<path style="fill:#FFFFFF;" d="M351.9,64c-17.7,0-32,14.3-32,32h32V64z"/>
		<path style="fill:#FFFFFF;" d="M351.9,319.9L351.9,319.9c17.7,0,32-14.3,32-32h-32V319.9z"/>
	</g>
</g>
</svg>
